HIERARCHY
ROOT root
{
  OFFSET 0 93.2929 0
  CHANNELS 6 Xposition Yposition Zposition Zrotation Xrotation Yrotation
  JOINT torso_1
  {
    OFFSET 0 5.07867 -1.15138
    CHANNELS 6 Xposition Yposition Zposition Zrotation Xrotation Yrotation
    JOINT torso_2
    {
      OFFSET 0 5.61661 1.07143
      CHANNELS 6 Xposition Yposition Zposition Zrotation Xrotation Yrotation
      JOINT torso_3
      {
        OFFSET -1.02604e-17 5.98978 0.11501
        CHANNELS 6 Xposition Yposition Zposition Zrotation Xrotation Yrotation
        JOINT torso_4
        {
          OFFSET -1.10457e-17 6.50583 -0.443523
          CHANNELS 6 Xposition Yposition Zposition Zrotation Xrotation Yrotation
          JOINT torso_5
          {
            OFFSET -1.97295e-17 7.60548 -1.50593
            CHANNELS 6 Xposition Yposition Zposition Zrotation Xrotation Yrotation
            JOINT torso_6
            {
              OFFSET -2.53307e-17 9.49737 -0.914492
              CHANNELS 6 Xposition Yposition Zposition Zrotation Xrotation Yrotation
              JOINT torso_7
              {
                OFFSET -2.90401e-17 10.5513 1.57691
                CHANNELS 6 Xposition Yposition Zposition Zrotation Xrotation Yrotation
                JOINT neck_1
                {
                  OFFSET -1.29193e-17 4.78644 0.715339
                  CHANNELS 6 Xposition Yposition Zposition Zrotation Xrotation Yrotation
                  JOINT neck_2
                  {
                    OFFSET -1.8116e-17 4.82109 0.421791
                    CHANNELS 6 Xposition Yposition Zposition Zrotation Xrotation Yrotation
                    JOINT head
                    {
                      OFFSET -2.00958e-17 4.83041 0.765062
                      CHANNELS 6 Xposition Yposition Zposition Zrotation Xrotation Yrotation
                      End Site
                      {
                        OFFSET 0 0.1 0
                      }
                    }
                  }
                }
                JOINT l_shoulder
                {
                  OFFSET 1.23299 -7.60731 7.53374
                  CHANNELS 6 Xposition Yposition Zposition Zrotation Xrotation Yrotation
                  JOINT l_up_arm
                  {
                    OFFSET 12.9547 3.2495 -3.26872
                    CHANNELS 6 Xposition Yposition Zposition Zrotation Xrotation Yrotation
                    JOINT l_low_arm
                    {
                      OFFSET 29.2081 0.0598081 0.137039
                      CHANNELS 6 Xposition Yposition Zposition Zrotation Xrotation Yrotation
                      JOINT l_hand
                      {
                        OFFSET 24.234 0.0496219 0.113701
                        CHANNELS 6 Xposition Yposition Zposition Zrotation Xrotation Yrotation
                        End Site
                        {
                          OFFSET 0.1 0 0
                        }
                      }
                    }
                  }
                }
                JOINT r_shoulder
                {
                  OFFSET -1.23299 -7.60729 7.53365
                  CHANNELS 6 Xposition Yposition Zposition Zrotation Xrotation Yrotation
                  JOINT r_up_arm
                  {
                    OFFSET -12.9547 3.2495 -3.26872
                    CHANNELS 6 Xposition Yposition Zposition Zrotation Xrotation Yrotation
                    JOINT r_low_arm
                    {
                      OFFSET -29.2081 0.0598081 0.137039
                      CHANNELS 6 Xposition Yposition Zposition Zrotation Xrotation Yrotation
                      JOINT r_hand
                      {
                        OFFSET -24.234 0.0496218 0.113702
                        CHANNELS 6 Xposition Yposition Zposition Zrotation Xrotation Yrotation
                        End Site
                        {
                          OFFSET -0.1 0 0
                        }
                      }
                    }
                  }
                }
              }
            }
          }
        }
      }
    }
  }
  JOINT l_up_leg
  {
    OFFSET 9.23673 -4.20556 2.0327
    CHANNELS 6 Xposition Yposition Zposition Zrotation Xrotation Yrotation
    JOINT l_low_leg
    {
      OFFSET -0.852353 -38.7721 -0.655187
      CHANNELS 6 Xposition Yposition Zposition Zrotation Xrotation Yrotation
      JOINT l_foot
      {
        OFFSET -2.32622 -40.4017 -6.04875
        CHANNELS 6 Xposition Yposition Zposition Zrotation Xrotation Yrotation
        JOINT l_toes
        {
          OFFSET 0.779096 -9.8844 12.4959
          CHANNELS 6 Xposition Yposition Zposition Zrotation Xrotation Yrotation
          End Site
          {
            OFFSET 0 0 0.1
          }
        }
      }
    }
  }
  JOINT r_up_leg
  {
    OFFSET -9.23673 -4.20556 2.0327
    CHANNELS 6 Xposition Yposition Zposition Zrotation Xrotation Yrotation
    JOINT r_low_leg
    {
      OFFSET 0.852353 -38.7721 -0.655187
      CHANNELS 6 Xposition Yposition Zposition Zrotation Xrotation Yrotation
      JOINT r_foot
      {
        OFFSET 2.32622 -40.4017 -6.04875
        CHANNELS 6 Xposition Yposition Zposition Zrotation Xrotation Yrotation
        JOINT r_toes
        {
          OFFSET -0.779096 -9.8844 12.4959
          CHANNELS 6 Xposition Yposition Zposition Zrotation Xrotation Yrotation
          End Site
          {
            OFFSET 0 0 0.1
          }
        }
      }
    }
  }
}
MOTION
Frames: 4
Frame Time: 0.016667
0 93.2929 0 -0 0 -0 0 5.07867 -1.15138 -0 0 -0 0 5.61661 1.07143 -0 0 -0 -1.02604e-17 5.98978 0.11501 -0 0 -0 -1.10457e-17 6.50583 -0.443523 -0 0 -0 -1.97295e-17 7.60548 -1.50593 -0 0 -0 -2.53307e-17 9.49737 -0.914492 -0 0 -0 -2.90401e-17 10.5513 1.57691 -0 0 -0 -1.29193e-17 4.78644 0.715339 -0 0 -0 -1.8116e-17 4.82109 0.421791 -0 0 -0 -2.00958e-17 4.83041 0.765062 -0 0 -0 1.23299 -7.60731 7.53374 -0 0 -0 12.9547 3.2495 -3.26872 -0 0 -0 29.2081 0.0598081 0.137039 -0 0 -0 24.234 0.0496219 0.113701 -0 0 -0 -1.23299 -7.60729 7.53365 -0 0 -0 -12.9547 3.2495 -3.26872 -0 0 -0 -29.2081 0.0598081 0.137039 -0 0 -0 -24.234 0.0496218 0.113702 -0 0 -0 9.23673 -4.20556 2.0327 -0 0 -0 -0.852353 -38.7721 -0.655187 -0 0 -0 -2.32622 -40.4017 -6.04875 -0 0 -0 0.779096 -9.8844 12.4959 -0 0 -0 -9.23673 -4.20556 2.0327 -0 0 -0 0.852353 -38.7721 -0.655187 -0 0 -0 2.32622 -40.4017 -6.04875 -0 0 -0 -0.779096 -9.8844 12.4959 -0 0 -0 
-14.9928 93.3558 -17.2556 -1.4466 3.43186 6.97531 0 5.07867 -1.15138 0.343174 -3.00695 0.0622885 0 5.61661 1.07143 0.402445 -1.57133 -0.00301646 -1.02604e-17 5.98978 0.11501 0.314231 0.551609 0.0303732 -1.10457e-17 6.50583 -0.443523 0.248913 3.7047 0.0360492 -1.97295e-17 7.60548 -1.50593 0.183739 5.02038 -0.0213011 -2.53307e-17 9.49737 -0.914492 0.228562 5.77565 -0.218178 -2.90401e-17 10.5513 1.57691 -0.0290535 0.375913 -0.0942104 -1.29193e-17 4.78644 0.715339 0.267618 6.5005 1.71839 -1.8116e-17 4.82109 0.421791 0.643714 -1.33065 0.703985 -2.00958e-17 4.83041 0.765062 -0.118809 -2.70439 3.22422 1.23299 -7.60731 7.53374 -4.10428 -1.30877 -0.469399 12.9547 3.2495 -3.26872 -85.0813 -10.0274 -10.0239 29.2081 0.0598081 0.137039 1.75703 -0.121427 -8.49711 24.234 0.0496219 0.113701 -0.373921 -12.2951 -10.7384 -1.23299 -7.60729 7.53365 2.39815 -1.32838 -0.277185 -12.9547 3.2495 -3.26872 84.2279 -6.50035 10.0452 -29.2081 0.0598081 0.137039 -2.14886 -0.184446 10.408 -24.234 0.0496218 0.113702 -5.47892 7.89978 12.8872 9.23673 -4.20556 2.0327 4.91428 -2.65966 -20.8058 -0.852353 -38.7721 -0.655187 1.72859 -6.39742 0.20845 -2.32622 -40.4017 -6.04875 -4.34831 1.80046 15.4454 0.779096 -9.8844 12.4959 -1.08244e-16 -7.99298e-16 1.65832e-17 -9.23673 -4.20556 2.0327 -5.03902 -3.01654 13.2893 0.852353 -38.7721 -0.655187 -1.57347 -5.82964 -0.18201 2.32622 -40.4017 -6.04875 4.59997 4.3273 -15.457 -0.779096 -9.8844 12.4959 -5.96354e-16 -5.59082e-16 -1.27471e-14 
-15.1199 93.3283 -17.2185 -1.47094 3.45436 6.94829 0 5.07867 -1.15138 0.314385 -2.98073 0.0651047 0 5.61661 1.07143 0.376863 -1.56539 -0.00583458 -1.02604e-17 5.98978 0.11501 0.293313 0.525429 0.028423 -1.10457e-17 6.50583 -0.443523 0.233855 3.6333 0.0328834 -1.97295e-17 7.60548 -1.50593 0.173136 4.92008 -0.0220628 -2.53307e-17 9.49737 -0.914492 0.224197 5.65688 -0.216612 -2.90401e-17 10.5513 1.57691 -0.0295028 0.384566 -0.0956977 -1.29193e-17 4.78644 0.715339 0.256675 6.5693 1.76253 -1.8116e-17 4.82109 0.421791 0.649153 -1.25855 0.72487 -2.00958e-17 4.83041 0.765062 -0.11459 -2.60104 3.27789 1.23299 -7.60731 7.53374 -4.03278 -1.28919 -0.447261 12.9547 3.2495 -3.26872 -84.6119 -10.6621 -9.96451 29.2081 0.0598081 0.137039 1.73086 -0.117686 -8.36973 24.234 0.0496219 0.113701 -0.276615 -11.5515 -10.3734 -1.23299 -7.60729 7.53365 2.32402 -1.31015 -0.338556 -12.9547 3.2495 -3.26872 84.1558 -7.03536 9.81439 -29.2081 0.0598081 0.137039 -2.14698 -0.18411 10.3987 -24.234 0.0496218 0.113702 -5.39479 7.99777 12.9267 9.23673 -4.20556 2.0327 5.01238 -2.63613 -20.7294 -0.852353 -38.7721 -0.655187 1.73811 -6.43221 0.210121 -2.32622 -40.4017 -6.04875 -4.30043 1.70294 15.4439 0.779096 -9.8844 12.4959 2.48481e-17 -7.95139e-16 1.2424e-17 -9.23673 -4.20556 2.0327 -4.95409 -2.99584 13.341 0.852353 -38.7721 -0.655187 -1.58555 -5.87391 -0.184014 2.32622 -40.4017 -6.04875 4.62743 4.16314 -15.447 -0.779096 -9.8844 12.4959 -5.96354e-16 -5.59082e-16 -1.27471e-14 
-15.125 93.3292 -17.2301 -1.48971 3.47288 6.93111 0 5.07867 -1.15138 0.316045 -2.96149 0.0581838 0 5.61661 1.07143 0.377531 -1.56037 -0.0144698 -1.02604e-17 5.98978 0.11501 0.292758 0.506439 0.0203844 -1.10457e-17 6.50583 -0.443523 0.233442 3.58388 0.0240352 -1.97295e-17 7.60548 -1.50593 0.170114 4.84869 -0.0308175 -2.53307e-17 9.49737 -0.914492 0.218057 5.56986 -0.223259 -2.90401e-17 10.5513 1.57691 -0.0307731 0.390264 -0.096805 -1.29193e-17 4.78644 0.715339 0.242256 6.65955 1.81224 -1.8116e-17 4.82109 0.421791 0.6233 -1.20467 0.747435 -2.00958e-17 4.83041 0.765062 -0.182781 -2.56477 3.327 1.23299 -7.60731 7.53374 -3.96796 -1.29426 -0.414173 12.9547 3.2495 -3.26872 -84.2116 -11.3504 -9.94405 29.2081 0.0598081 0.137039 1.70395 -0.1139 -8.23875 24.234 0.0496219 0.113701 -0.17799 -10.8165 -9.98475 -1.23299 -7.60729 7.53365 2.23604 -1.3233 -0.40064 -12.9547 3.2495 -3.26872 83.9656 -7.65281 9.62564 -29.2081 0.0598081 0.137039 -2.14097 -0.183041 10.3693 -24.234 0.0496218 0.113702 -5.27909 8.15841 12.9481 9.23673 -4.20556 2.0327 5.03243 -2.63926 -20.6818 -0.852353 -38.7721 -0.655187 1.74924 -6.47287 0.212082 -2.32622 -40.4017 -6.04875 -4.31439 1.71696 15.4431 0.779096 -9.8844 12.4959 2.48481e-17 -7.95139e-16 1.2424e-17 -9.23673 -4.20556 2.0327 -4.94611 -3.03181 13.3603 0.852353 -38.7721 -0.655187 -1.58554 -5.87388 -0.184013 2.32622 -40.4017 -6.04875 4.68427 4.16682 -15.4502 -0.779096 -9.8844 12.4959 -7.28308e-16 -5.54958e-16 -1.27388e-14 
